<?xml version="1.0" standalone="no"?>
<!DOCTYPE svg PUBLIC "-//W3C//DTD SVG 20010904//EN"
 "http://www.w3.org/TR/2001/REC-SVG-20010904/DTD/svg10.dtd">
<svg version="1.0" xmlns="http://www.w3.org/2000/svg"
 width="72.000000pt" height="72.000000pt" viewBox="0 0 72.000000 72.000000"
 preserveAspectRatio="xMidYMid meet">
<metadata>
Created by potrace 1.14, written by Peter Selinger 2001-2017
</metadata>
<g transform="translate(0.000000,72.000000) scale(0.100000,-0.100000)"
fill="#000000" stroke="none">
<path d="M405 680 c-3 -5 -5 -72 -4 -149 1 -112 4 -141 15 -142 8 0 70 0 139
0 69 0 129 0 134 0 6 1 10 65 10 151 l0 150 -145 -1 c-79 -1 -147 -5 -149 -9z"/>
<path d="M20 328 l0 -298 47 -1 c58 -1 536 -1 544 0 3 1 5 67 5 149 l-1 147
-143 1 c-79 1 -145 3 -147 6 -3 2 -6 69 -7 148 l-3 145 -147 0 -147 0 -1 -297z"/>
</g>
</svg>
