<svg width="22" height="22" viewBox="0 0 22 22" fill="none" xmlns="http://www.w3.org/2000/svg">
<path d="M10.9964 16.3532C11.3263 16.3532 11.5987 16.2494 11.8136 16.0417C12.0285 15.834 12.1359 15.5651 12.1359 15.2351C12.1359 14.9052 12.0297 14.6304 11.8173 14.4108C11.6048 14.1913 11.3336 14.0815 11.0037 14.0815C10.6737 14.0815 10.4013 14.1911 10.1864 14.4104C9.97155 14.6297 9.86413 14.9043 9.86413 15.2343C9.86413 15.5643 9.97034 15.8332 10.1828 16.0412C10.3952 16.2492 10.6664 16.3532 10.9964 16.3532ZM10.0848 12.1891H12.0652V5.62387H10.0848V12.1891ZM11.0086 21.3532C9.57189 21.3532 8.226 21.0833 6.97095 20.5434C5.71592 20.0035 4.61808 19.2632 3.67743 18.3225C2.7368 17.3819 1.99652 16.2841 1.4566 15.0291C0.916687 13.7741 0.646729 12.4276 0.646729 10.9894C0.646729 9.55129 0.916687 8.20408 1.4566 6.94779C1.99652 5.69151 2.73606 4.59697 3.67523 3.66417C4.61438 2.73137 5.7118 1.9929 6.96748 1.44877C8.22315 0.904635 9.57045 0.632568 11.0094 0.632568C12.4483 0.632568 13.7965 0.904268 15.0539 1.44767C16.3113 1.99107 17.406 2.72854 18.3381 3.66009C19.2702 4.59164 20.0081 5.68708 20.5518 6.94639C21.0955 8.20571 21.3674 9.55469 21.3674 10.9933C21.3674 12.4313 21.0953 13.7778 20.5512 15.0327C20.0071 16.2876 19.2686 17.3832 18.3358 18.3196C17.403 19.2561 16.3078 19.9958 15.0502 20.5388C13.7925 21.0818 12.4453 21.3533 11.0086 21.3533V21.3532ZM11.0125 19.3728C13.3332 19.3728 15.3067 18.5584 16.9332 16.9295C18.5596 15.3006 19.3728 13.32 19.3728 10.9875C19.3728 8.66682 18.5612 6.69327 16.9378 5.06682C15.3145 3.44037 13.3329 2.62714 10.9929 2.62714C8.67591 2.62714 6.70236 3.43881 5.07228 5.06214C3.44221 6.68546 2.62718 8.66709 2.62718 11.007C2.62718 13.3241 3.44161 15.2976 5.07048 16.9277C6.69935 18.5578 8.68002 19.3728 11.0125 19.3728Z" fill="white"/>
</svg>
