<svg width="180" height="180" viewBox="0 0 180 180" fill="none" xmlns="http://www.w3.org/2000/svg">
<g clip-path="url(#clip0_4_51)">
<rect x="79" y="98" width="75" height="75" fill="black" fill-opacity="0.8"/>
<rect x="79.5" y="98.5" width="74" height="74" stroke="#919191" stroke-opacity="0.5"/>
<path d="M5 24H80V61.5V99H5V24Z" fill="black" fill-opacity="0.8"/>
<path d="M5.5 24.5H79.5V61.5V98.5H5.5V24.5Z" stroke="#919191" stroke-opacity="0.5"/>
<rect x="5" y="98" width="75" height="75" fill="black" fill-opacity="0.8"/>
<rect x="5.5" y="98.5" width="74" height="74" stroke="#919191" stroke-opacity="0.5"/>
<rect x="99.9433" y="7.9433" width="75" height="75" fill="black" fill-opacity="0.8"/>
<rect x="100.443" y="8.4433" width="74" height="74" stroke="black" stroke-opacity="0.5"/>
<path d="M47.3912 81V59.85L39.7412 75.25H35.2412L27.5912 59.85V81H19.3912V45.5H28.2912L37.4912 64.05L46.7412 45.5H55.5912V81H47.3912ZM26.6561 144.95C27.3227 145.15 27.9394 145.3 28.5061 145.4C29.1061 145.533 29.6394 145.6 30.1061 145.6C30.7394 145.6 31.2727 145.45 31.7061 145.15C32.1727 144.883 32.5727 144.4 32.9061 143.7C33.2394 143.033 33.5394 142.133 33.8061 141L23.8061 114.75H32.0561L38.1561 132.8L43.3561 114.75H50.9061L40.9061 145.25C40.4394 146.683 39.7227 147.95 38.7561 149.05C37.7894 150.15 36.6227 151 35.2561 151.6C33.8894 152.233 32.3894 152.55 30.7561 152.55C30.0561 152.55 29.3727 152.483 28.7061 152.35C28.0394 152.25 27.3561 152.067 26.6561 151.8V144.95Z" fill="white"/>
<path d="M55.9723 150V114.5H71.1223C72.8223 114.5 74.3723 114.85 75.7723 115.55C77.2056 116.217 78.4389 117.133 79.4723 118.3C80.5056 119.433 81.3056 120.717 81.8723 122.15C82.4389 123.583 82.7223 125.05 82.7223 126.55C82.7223 128.583 82.2389 130.517 81.2723 132.35C80.3389 134.183 79.0223 135.683 77.3223 136.85C75.6556 137.983 73.6723 138.55 71.3723 138.55H64.1723V150H55.9723ZM64.1723 131.4H70.8723C71.5056 131.4 72.0889 131.217 72.6223 130.85C73.1556 130.483 73.5889 129.933 73.9223 129.2C74.2556 128.467 74.4223 127.567 74.4223 126.5C74.4223 125.4 74.2223 124.5 73.8223 123.8C73.4556 123.067 72.9723 122.533 72.3723 122.2C71.8056 121.867 71.2056 121.7 70.5723 121.7H64.1723V131.4ZM91.9828 142.15C91.9828 140.417 92.4661 138.9 93.4328 137.6C94.3995 136.3 95.7328 135.283 97.4328 134.55C99.1328 133.783 101.083 133.4 103.283 133.4C104.349 133.4 105.399 133.5 106.433 133.7C107.466 133.867 108.366 134.117 109.133 134.45V133.3C109.133 131.867 108.699 130.767 107.833 130C106.966 129.233 105.649 128.85 103.883 128.85C102.416 128.85 101.033 129.1 99.7328 129.6C98.4661 130.1 97.1161 130.817 95.6828 131.75L93.2828 126.65C95.0161 125.517 96.8161 124.667 98.6828 124.1C100.583 123.533 102.583 123.25 104.683 123.25C108.616 123.25 111.666 124.2 113.833 126.1C116.033 127.967 117.133 130.683 117.133 134.25V141.1C117.133 141.9 117.249 142.467 117.483 142.8C117.749 143.1 118.199 143.283 118.833 143.35V150C118.166 150.133 117.533 150.233 116.933 150.3C116.366 150.367 115.866 150.4 115.433 150.4C113.933 150.4 112.783 150.1 111.983 149.5C111.216 148.9 110.733 148.083 110.533 147.05L110.383 145.9C109.216 147.4 107.816 148.55 106.183 149.35C104.583 150.117 102.899 150.5 101.133 150.5C99.3995 150.5 97.8328 150.133 96.4328 149.4C95.0661 148.667 93.9828 147.667 93.1828 146.4C92.3828 145.133 91.9828 143.717 91.9828 142.15ZM107.883 143.15C108.249 142.85 108.549 142.517 108.783 142.15C109.016 141.783 109.133 141.433 109.133 141.1V138.75C108.466 138.483 107.716 138.283 106.883 138.15C106.083 137.983 105.333 137.9 104.633 137.9C103.166 137.9 101.949 138.233 100.983 138.9C100.016 139.533 99.5328 140.383 99.5328 141.45C99.5328 142.05 99.6995 142.6 100.033 143.1C100.366 143.6 100.816 144 101.383 144.3C101.983 144.6 102.683 144.75 103.483 144.75C104.283 144.75 105.083 144.6 105.883 144.3C106.683 144 107.349 143.617 107.883 143.15ZM130.33 113.5H138.33V140.65C138.33 141.75 138.53 142.533 138.93 143C139.33 143.467 139.896 143.7 140.63 143.7C141.13 143.7 141.63 143.633 142.13 143.5C142.663 143.333 143.13 143.15 143.53 142.95L144.58 148.95C143.58 149.417 142.43 149.783 141.13 150.05C139.83 150.317 138.613 150.45 137.48 150.45C135.213 150.45 133.446 149.85 132.18 148.65C130.946 147.417 130.33 145.683 130.33 143.45V113.5Z" fill="white"/>
</g>
<defs>
<clipPath id="clip0_4_51">
<rect width="180" height="180" fill="white"/>
</clipPath>
</defs>
</svg>